<svg xmlns="http://www.w3.org/2000/svg" width="64" height="64" viewBox="0 0 64 64">
  <!-- Shadow -->
  <g opacity="0.5" transform="translate(1.5,1.5)">
    <path d="M32,6 L29,18 L14,30 L14,33 L28,28 L27,48 L22,52 L22,55 L32,51 L42,55 L42,52 L37,48 L36,28 L50,33 L50,30 L35,18 Z" fill="#000"/>
  </g>
  <!-- Body -->
  <path d="M32,6 L29,18 L14,30 L14,33 L28,28 L27,48 L22,52 L22,55 L32,51 L42,55 L42,52 L37,48 L36,28 L50,33 L50,30 L35,18 Z" fill="#1a1a2e" stroke="#00E5FF" stroke-width="1.5"/>
  <!-- Center line -->
  <line x1="32" y1="8" x2="32" y2="50" stroke="#00E5FF" stroke-width="0.7" opacity="0.4"/>
  <!-- Engine -->
  <ellipse cx="32" cy="46" rx="3" ry="4" fill="#111" stroke="#00E5FF" stroke-width="0.6" opacity="0.6"/>
  <!-- Nose -->
  <circle cx="32" cy="9" r="2" fill="#00E5FF"/>
  <!-- Wing tips -->
  <circle cx="14" cy="31" r="2" fill="#00E5FF" opacity="0.3"/>
  <circle cx="50" cy="31" r="2" fill="#00E5FF" opacity="0.3"/>
</svg>
